<?xml version="1.0" encoding="UTF-8"?>
<svg id="Layer_1" xmlns="http://www.w3.org/2000/svg" version="1.1" viewBox="0 0 841.9 595.3">
  <!-- Generator: Adobe Illustrator 30.1.0, SVG Export Plug-In . SVG Version: 2.1.1 Build 136)  -->
  <defs>
    <style>
      .st0 {
        fill: #fff;
      }

      .st1 {
        fill: #f15a22;
      }
    </style>
  </defs>
  <g id="Ondulkart">
    <path class="st1" d="M215.3,286.8v-2.5c0-13.9-5.2-20.6-13.8-20.6s-13.8,6.7-13.8,20.6v2.5c0,13.8,5.2,20.6,13.8,20.6s13.8-6.8,13.8-20.6M171.9,287.5v-3.8c0-21.6,12.3-33.5,29.7-33.5s29.8,11.8,29.8,33.5v3.8c0,21.6-10.9,33.5-29.8,33.5s-29.7-11.8-29.7-33.5"/>
    <path class="st1" d="M238.9,251.7v68.1h15.9v-43.5c0-8.4,7-12.2,13.5-12.2s12,3.7,12,12.2v43.5h15.8v-45c0-16.3-10.2-24.7-24.5-24.7s-16.9,5.5-16.9,9v-7.4h-15.8,0Z"/>
    <path class="st1" d="M303.5,287.5v-3.8c0-21,11.3-33.5,26.7-33.5s12.3,3,15.7,7.5v-33.9h15.9v95.8h-15.9v-6.3c-3.5,4.6-9.7,7.6-16.5,7.6-15.5,0-25.9-11.7-25.9-33.5M346,286.8v-2.5c0-13.9-5-20.6-13.3-20.6s-13.3,6.7-13.3,20.6v2.5c0,13.8,5,20.6,13.3,20.6s13.3-6.8,13.3-20.6"/>
    <path class="st1" d="M427.9,319.8v-68.1h-15.9v43.5c0,8.4-7,12.2-13.5,12.2s-12-3.7-12-12.2v-43.5h-15.8v45c0,16.3,10.2,24.3,24.5,24.3s16.9-5.2,16.9-8.7v7.4h15.8Z"/>
    <polygon class="st1" points="452.6 224 436.9 241.1 436.9 345.5 452.6 328.4 452.6 224"/>
    <polygon class="st1" points="461.6 224 461.6 318 487 290.4 498.8 310.1 504.8 319.8 523.3 319.8 497.7 278.9 522.8 251.7 504 251.7 477.3 280.6 477.3 224 461.6 224"/>
    <path class="st1" d="M553.3,289.8h11.5v3.1c0,10-8,15.6-15.2,15.6s-10.4-3.3-10.4-9.2,3.9-9.6,14.1-9.6M580.5,319.7v-44.1c0-17.4-8.1-25.6-26.8-25.6s-27.2,7.6-28.2,22.6h15.2c.3-6.4,4.3-9.8,12.3-9.8s11.7,4.1,11.7,12.7v3h-13.6c-18.5,0-27.6,7.7-27.6,21.8s8.4,21,22.1,21,14.2-2.8,19.1-8.3v6.7h15.8Z"/>
    <path class="st1" d="M626.2,266.1v-14.4h-4.9c-8,0-13.4,3-16.7,9.6v-9.6h-15.8v68.1h15.8v-38.6c0-11.4,7.5-15.1,18-15.1h3.6Z"/>
    <path class="st1" d="M663.6,266.2v-14.5h-11.1v-13.8h-15.8v13.8h-4.7v14.5h4.7v30.2c0,16.3,10.2,24.7,24.5,24.7h0v-14.1c-5.1-.7-8.8-3.4-8.8-10.6v-30.2h11.2Z"/>
  </g>
  <g id="dentro_il_tuo_mondo">
    <path class="st0" d="M659.7,341.3c-.2.6-.6,1.1-1,1.6s-1,.8-1.6,1.1c-.6.3-1.3.4-2.1.4s-1.5-.1-2.1-.4-1.1-.6-1.6-1.1c-.4-.5-.8-1-1-1.6s-.3-1.3-.3-1.9,0-1.3.3-1.9.6-1.2,1-1.6c.4-.5,1-.8,1.6-1.1.6-.3,1.3-.4,2.1-.4s1.5.1,2.1.4,1.1.6,1.6,1.1c.4.5.8,1,1,1.6s.3,1.3.3,1.9,0,1.3-.3,1.9M660.9,336.9c-.3-.7-.8-1.4-1.3-1.9-.6-.5-1.2-1-2-1.3s-1.6-.5-2.5-.5-1.7.2-2.5.5-1.4.7-2,1.3c-.6.5-1,1.2-1.3,1.9-.3.7-.5,1.6-.5,2.4s.2,1.7.5,2.4c.3.7.8,1.4,1.3,1.9.6.5,1.2,1,2,1.3s1.6.5,2.5.5,1.7-.2,2.5-.5,1.4-.7,2-1.3c.6-.5,1-1.2,1.3-1.9.3-.7.5-1.6.5-2.4s-.2-1.7-.5-2.4M637.7,334.6h2.4c.9,0,1.7.1,2.4.4s1.2.6,1.7,1.1c.4.4.8.9,1,1.5s.3,1.2.3,1.8,0,1.2-.3,1.8c-.2.6-.6,1.1-1,1.5s-1,.8-1.7,1.1c-.7.3-1.5.4-2.4.4h-2.4v-9.5h0ZM636.5,345.2h4c.8,0,1.5-.1,2.3-.4.8-.2,1.4-.6,2.1-1.1.6-.5,1.1-1.1,1.5-1.8.4-.7.6-1.6.6-2.5s-.2-1.8-.6-2.5c-.4-.7-.9-1.3-1.5-1.8s-1.3-.9-2.1-1.1-1.5-.4-2.3-.4h-4v11.6h0ZM625,333.6h-1.5v11.6h1.2v-10h0l7,10h1.5v-11.6h-1.2v9.9h0l-7-9.9ZM619.3,341.3c-.2.6-.6,1.1-1,1.6s-1,.8-1.6,1.1c-.6.3-1.3.4-2.1.4s-1.5-.1-2.1-.4-1.1-.6-1.6-1.1c-.4-.5-.8-1-1-1.6s-.3-1.3-.3-1.9,0-1.3.3-1.9.6-1.2,1-1.6c.4-.5,1-.8,1.6-1.1.6-.3,1.3-.4,2.1-.4s1.5.1,2.1.4,1.1.6,1.6,1.1c.4.5.8,1,1,1.6s.3,1.3.3,1.9,0,1.3-.3,1.9M620.5,336.9c-.3-.7-.8-1.4-1.3-1.9-.6-.5-1.2-1-2-1.3s-1.6-.5-2.5-.5-1.7.2-2.5.5-1.4.7-2,1.3c-.6.5-1,1.2-1.3,1.9-.3.7-.5,1.6-.5,2.4s.2,1.7.5,2.4c.3.7.8,1.4,1.3,1.9.6.5,1.2,1,2,1.3s1.6.5,2.5.5,1.7-.2,2.5-.5,1.4-.7,2-1.3c.6-.5,1-1.2,1.3-1.9.3-.7.5-1.6.5-2.4s-.2-1.7-.5-2.4M595.8,333.6h-1.9v11.6h1.2v-10.1h0l4.4,10.1h.6l4.4-10.1h0v10.1h1.2v-11.6h-1.9l-4,9.6h0l-4.1-9.6h0ZM585.5,341.3c-.2.6-.6,1.1-1,1.6s-1,.8-1.6,1.1c-.6.3-1.3.4-2.1.4s-1.5-.1-2.1-.4-1.1-.6-1.6-1.1c-.4-.5-.8-1-1-1.6s-.3-1.3-.3-1.9,0-1.3.3-1.9.6-1.2,1-1.6c.4-.5,1-.8,1.6-1.1.6-.3,1.3-.4,2.1-.4s1.5.1,2.1.4,1.1.6,1.6,1.1c.4.5.8,1,1,1.6s.3,1.3.3,1.9,0,1.3-.3,1.9M586.6,336.9c-.3-.7-.8-1.4-1.3-1.9-.6-.5-1.2-1-2-1.3s-1.6-.5-2.5-.5-1.7.2-2.5.5-1.4.7-2,1.3c-.6.5-1,1.2-1.3,1.9-.3.7-.5,1.6-.5,2.4s.2,1.7.5,2.4c.3.7.8,1.4,1.3,1.9.6.5,1.2,1,2,1.3s1.6.5,2.5.5,1.7-.2,2.5-.5,1.4-.7,2-1.3c.6-.5,1-1.2,1.3-1.9.3-.7.5-1.6.5-2.4s-.2-1.7-.5-2.4M569.8,345c.6-.3,1.1-.7,1.4-1.1.3-.5.6-1,.7-1.5,0-.5.2-1.1.2-1.5v-7.3h-1.2v7.2c0,.5,0,.9-.2,1.4,0,.4-.3.8-.6,1.2-.3.3-.6.6-1,.8-.4.2-.9.3-1.6.3s-1.1-.1-1.6-.3c-.4-.2-.8-.5-1-.8-.3-.3-.4-.7-.6-1.2,0-.4-.2-.9-.2-1.4v-7.2h-1.2v7.3c0,.5,0,1,.2,1.5,0,.5.4,1,.7,1.5s.8.8,1.4,1.1,1.3.5,2.2.5,1.6-.2,2.2-.5M557.2,334.6h4v-1.1h-9.3v1.1h4v10.6h1.2v-10.6h0ZM541.5,333.6h-1.2v11.6h6.9v-1.1h-5.6v-10.6h-.1ZM537.1,333.6h-1.2v11.6h1.2v-11.6ZM527.4,341.3c-.2.6-.6,1.1-1,1.6s-1,.8-1.6,1.1c-.6.3-1.3.4-2.1.4s-1.5-.1-2.1-.4-1.1-.6-1.6-1.1c-.4-.5-.8-1-1-1.6s-.3-1.3-.3-1.9,0-1.3.3-1.9.6-1.2,1-1.6c.4-.5,1-.8,1.6-1.1.6-.3,1.3-.4,2.1-.4s1.5.1,2.1.4,1.1.6,1.6,1.1c.4.5.8,1,1,1.6s.3,1.3.3,1.9,0,1.3-.3,1.9M528.6,336.9c-.3-.7-.8-1.4-1.3-1.9-.6-.5-1.2-1-2-1.3s-1.6-.5-2.5-.5-1.7.2-2.5.5-1.4.7-2,1.3c-.6.5-1,1.2-1.3,1.9-.3.7-.5,1.6-.5,2.4s.2,1.7.5,2.4c.3.7.8,1.4,1.3,1.9.6.5,1.2,1,2,1.3s1.6.5,2.5.5,1.7-.2,2.5-.5,1.4-.7,2-1.3c.6-.5,1-1.2,1.3-1.9.3-.7.5-1.6.5-2.4s-.2-1.7-.5-2.4M508.3,334.6h2.2c.5,0,.9,0,1.2.1.4,0,.7.2,1,.4.3.2.5.4.6.6,0,.3.2.6.2,1,0,.7-.3,1.2-.8,1.6-.5.3-1.3.5-2.3.5h-2.1v-4.2h0ZM508.3,339.8h2l3.3,5.4h1.5l-3.5-5.5c.4,0,.9-.1,1.2-.3.4-.2.7-.4,1-.6.3-.3.5-.6.6-.9.2-.3.2-.7.2-1.2s0-1.1-.3-1.4c-.2-.4-.5-.7-.9-1-.4-.2-.8-.4-1.3-.5s-1.1-.2-1.6-.2h-3.6v11.6h1.2v-5.4h.2ZM501.2,334.6h4v-1.1h-9.3v1.1h4v10.6h1.2v-10.6h0ZM485.8,333.6h-1.5v11.6h1.2v-10h0l7,10h1.5v-11.6h-1.2v9.9h0l-7-9.9ZM475.7,339.7h5.9v-1.1h-5.9v-4h6.3v-1.1h-7.5v11.6h7.7v-1.1h-6.5v-4.5.2ZM462.8,334.6h2.4c.9,0,1.7.1,2.4.4.7.3,1.2.6,1.7,1.1s.8.9,1,1.5.3,1.2.3,1.8-.1,1.2-.3,1.8c-.2.6-.6,1.1-1,1.5s-1,.8-1.7,1.1c-.7.3-1.5.4-2.4.4h-2.4v-9.5h0ZM461.6,345.2h4c.8,0,1.5-.1,2.3-.4.8-.2,1.4-.6,2-1.1s1.1-1.1,1.5-1.8c.4-.7.6-1.6.6-2.5s-.2-1.8-.6-2.5-.9-1.3-1.5-1.8-1.3-.9-2-1.1c-.8-.2-1.5-.4-2.3-.4h-4v11.6h0Z"/>
  </g>
</svg>